<?xml version="1.0" encoding="UTF-8"?>
<svg width="100pt" height="100pt" version="1.1" viewBox="0 0 100 100" xmlns="http://www.w3.org/2000/svg">
 <path d="m87.5 44h-9v-1.5c0-0.36719-0.20312-0.70703-0.52734-0.88281-0.32422-0.17578-0.71875-0.15625-1.0273 0.050781l-7.25 4.832h-4.6953c-0.55469 0-1 0.44922-1 1v1.5h-5.5v-4c0-0.55078-0.44531-1-1-1h-4v-5.5h6.5c1.4062 0 3.5-0.93359 3.5-3.5s-2.0938-3.5-3.5-3.5h-6.5v-1.5508c-0.074219-1.3867-1.0625-3.4492-3.5-3.4492s-3.4258 2.0625-3.5 3.5v1.5h-6.5c-1.4062 0-3.5 0.93359-3.5 3.5s2.0938 3.5 3.5 3.5h6.5v5.5h-4c-0.55469 0-1 0.44922-1 1v4h-5.5v-1.5c0-0.55078-0.44531-1-1-1h-4.6953l-7.25-4.832c-0.30469-0.20312-0.70313-0.22266-1.0273-0.050781-0.32422 0.17578-0.52734 0.51562-0.52734 0.88281v1.5h-9c-0.55469 0-1 0.44922-1 1v25c0 0.55078 0.44531 1 1 1h9v1.5c0 0.36719 0.20312 0.70703 0.52734 0.88281 0.14844 0.078126 0.30859 0.11719 0.47266 0.11719 0.19531 0 0.38672-0.054688 0.55469-0.16797l7.25-4.832h4.6953c0.55469 0 1-0.44922 1-1v-1.5h28v1.5c0 0.55078 0.44531 1 1 1h4.6953l7.25 4.832c0.16797 0.11328 0.35938 0.16797 0.55469 0.16797 0.16406 0 0.32422-0.039062 0.47266-0.11719 0.32422-0.17578 0.52734-0.51562 0.52734-0.88281v-1.5h9c0.55469 0 1-0.44922 1-1v-25c0-0.55078-0.44531-1-1-1zm-66 25h-8v-23h8zm7.5-2.0352-5.5 3.668v-26.266l5.5 3.668zm5-16.965v16.5h-3v-18h3zm16-21.5c1.293 0 1.4766 1.1953 1.5 1.5v1.5h-3v-1.4492c0.007812-0.15625 0.11719-1.5508 1.5-1.5508zm-10 8c-0.25 0-1.5-0.070312-1.5-1.5 0-1.3281 1.0547-1.4922 1.5-1.5h20c0.25 0 1.5 0.070312 1.5 1.5 0 1.3242-1.0508 1.4922-1.5078 1.5zm11.5 2v5.5h-3v-5.5zm-8 7.5h13v3h-13zm20.5 18h-28v-13h28zm5 2.5h-3v-18h3zm7.5-21.5v25.633l-5.5-3.668v-18.93l5.5-3.668zm10 24h-8v-23h8z"/>
</svg>
